<?xml version="1.0" encoding="UTF-8" standalone="no"?>
<!DOCTYPE svg PUBLIC "-//W3C//DTD SVG 1.1//EN" "http://www.w3.org/Graphics/SVG/1.1/DTD/svg11.dtd">
<svg width="100%" height="100%" viewBox="0 0 330 72" version="1.1" xmlns="http://www.w3.org/2000/svg" xmlns:xlink="http://www.w3.org/1999/xlink" xml:space="preserve" xmlns:serif="http://www.serif.com/" style="fill-rule:evenodd;clip-rule:evenodd;stroke-linecap:round;stroke-linejoin:round;stroke-miterlimit:1.5;">
    <g transform="matrix(1,0,0,1,-326.533,-538)">
        <g id="Logo_website" transform="matrix(0.894309,0,0,0.330275,17.9969,471.284)">
            <rect x="345" y="202" width="369" height="218" style="fill:none;"/>
            <clipPath id="_clip1">
                <rect x="345" y="202" width="369" height="218"/>
            </clipPath>
            <g clip-path="url(#_clip1)">
                <g id="Logo_Text" transform="matrix(0.482534,0,0,1.05512,303.502,4.69213)">
                    <g id="Text" transform="matrix(2.36584,0,0,1.19821,-739.331,-55.2606)">
                        <g transform="matrix(1.48518,0,0,6.76477,38.2667,-2103.91)">
                            <text x="257.469px" y="361.931px" style="font-family:'Verdana', sans-serif;font-size:29.167px;">|</text>
                        </g>
                        <g transform="matrix(0.460039,0,0,0.908333,303.254,52.6476)">
                            <text x="289.299px" y="341.846px" style="font-family:'Verdana', sans-serif;font-size:217.611px;">S</text>
                        </g>
                        <g transform="matrix(0.460039,0,0,0.908333,302.886,-15.9193)">
                            <text x="433px" y="326.261px" style="font-family:'Verdana', sans-serif;font-size:95.653px;">cript</text>
                        </g>
                        <g transform="matrix(0.460039,0,0,0.908333,298.758,3.6273)">
                            <text x="434.975px" y="390px" style="font-family:'Verdana', sans-serif;font-size:95.653px;">olutions</text>
                        </g>
                    </g>
                    <g id="Kreis" transform="matrix(0.325,0,0,0.465803,56.6083,160.316)">
                        <ellipse cx="347.123" cy="279.066" rx="256.687" ry="221.779"/>
                        <clipPath id="_clip2">
                            <ellipse cx="347.123" cy="279.066" rx="256.687" ry="221.779"/>
                        </clipPath>
                        <g clip-path="url(#_clip2)">
                            <g id="Puzzle" transform="matrix(1.11258,0,0,0.961278,-171.625,38.2231)">
                                <g id="Puzzle_Teil" transform="matrix(0.0851335,0,0,0.119298,257.589,23.1514)">
                                    <path d="M647.87,439.18C613.133,639.637 732.115,707.354 980,663.759C1379.31,627.646 1477.26,806.556 1296.35,1184.42C1163.53,1542.69 1260.88,1675.32 1569.9,1613.31C1753.36,1606.41 1829.11,1718.87 1812.96,1902.36C1832.27,2071.04 1776.93,2187.8 1578.91,2179.55C1263.57,2128.74 1179.56,2274.97 1295.69,2591.69C1429.81,2950.85 1360.77,3155.9 980,3124.49C734.127,3134.57 647.891,3222.29 691.166,3373.01" style="fill:none;stroke:rgb(255,251,251);stroke-width:64.42px;"/>
                                </g>
                                <g id="Puzzle_Teil1" serif:id="Puzzle_Teil" transform="matrix(-0.000631919,-0.0851312,-0.119295,0.000885512,694.066,261.54)">
                                    <path d="M647.87,439.18C613.133,639.637 732.115,707.354 980,663.759C1379.31,627.646 1477.26,806.556 1296.35,1184.42C1163.53,1542.69 1260.88,1675.32 1569.9,1613.31C1753.36,1606.41 1829.11,1718.87 1812.96,1902.36C1832.27,2071.04 1776.93,2187.8 1578.91,2179.55C1263.57,2128.74 1179.56,2274.97 1295.69,2591.69C1429.81,2950.85 1360.77,3155.9 980,3124.49C734.127,3134.57 647.891,3222.29 691.166,3373.01" style="fill:none;stroke:rgb(255,251,251);stroke-width:64.42px;"/>
                                </g>
                                <g id="Puzzle_Teil2" serif:id="Puzzle_Teil" transform="matrix(-0.000307584,0.0851329,0.119297,0.000431019,239.087,229.405)">
                                    <path d="M647.87,439.18C613.133,639.637 732.115,707.354 980,663.759C1379.31,627.646 1477.26,806.556 1296.35,1184.42C1163.53,1542.69 1260.88,1675.32 1569.9,1613.31C1753.36,1606.41 1829.11,1718.87 1812.96,1902.36C1832.27,2071.04 1776.93,2187.8 1578.91,2179.55C1263.57,2128.74 1179.56,2274.97 1295.69,2591.69C1429.81,2950.85 1360.77,3155.9 980,3124.49C734.127,3134.57 647.891,3222.29 691.166,3373.01" style="fill:none;stroke:rgb(255,251,251);stroke-width:64.42px;"/>
                                </g>
                                <g id="Puzzle_Teil3" serif:id="Puzzle_Teil" transform="matrix(-0.0851335,1.51755e-05,-2.12654e-05,-0.119298,677.656,477.928)">
                                    <path d="M647.87,439.18C613.133,639.637 732.115,707.354 980,663.759C1379.31,627.646 1477.26,806.556 1296.35,1184.42C1163.53,1542.69 1260.88,1675.32 1569.9,1613.31C1753.36,1606.41 1829.11,1718.87 1812.96,1902.36C1832.27,2071.04 1776.93,2187.8 1578.91,2179.55C1263.57,2128.74 1179.56,2274.97 1295.69,2591.69C1429.81,2950.85 1360.77,3155.9 980,3124.49C734.127,3134.57 647.891,3222.29 691.166,3373.01" style="fill:none;stroke:rgb(255,251,251);stroke-width:64.42px;"/>
                                </g>
                            </g>
                        </g>
                    </g>
                </g>
            </g>
        </g>
    </g>
</svg>
